<svg width="3652" height="2435" viewBox="0 0 3652 2435" fill="none" xmlns="http://www.w3.org/2000/svg">
<path d="M3584.8 3.04375H3652V0H3579.51L3548.47 53.8135L3517.36 107.627H3393.13L3330.99 0H3196.17L3150.76 78.6505L3134.02 107.627H3009.73L2947.65 0H2812.83L2750.69 107.627H2626.4L2564.25 0H2429.43L2367.35 107.627H2243.06L2180.91 0H2046.09L2000.69 78.6505L1983.95 107.627H1859.72L1797.58 0H1662.76L1600.61 107.627H1476.38L1414.24 0H1279.42L1248.31 53.8135L1217.27 107.627H1092.98L1030.9 0H896.079L879.28 28.9765L833.934 107.627H709.644L647.5 0H512.68L450.535 107.627H326.306L264.161 0H129.342L98.2997 53.8135L67.1968 107.627H0V113.714H67.1968L98.2997 167.528L129.342 221.341L98.2997 275.155L67.1968 329.029H0V335.117H67.1968L98.2997 388.93L129.342 442.744L98.2997 496.557L67.1968 550.371H0V556.458H67.1968L98.2997 610.272L129.342 664.085L98.2997 717.899L67.1968 771.712H0V777.8H67.1968L98.2997 831.613L129.342 885.427L98.2997 939.301L67.1968 993.115H0V999.202H67.1968L98.2997 1053.02L129.342 1106.83L98.2997 1160.64L67.1968 1214.46H0V1220.54H67.1968L98.2997 1274.36L129.342 1328.17L98.2997 1381.98L67.1968 1435.8H0V1441.89H67.1968L98.2997 1495.7L129.342 1549.57L98.2997 1603.39L67.1968 1657.2H0V1663.29H67.1968L98.2997 1717.1L129.342 1770.91L98.2997 1824.73L67.1968 1878.54H0V1884.63H67.1968L98.2997 1938.44L129.342 1992.26L98.2997 2046.07L67.1968 2099.88H0V2105.97H67.1968L98.2997 2159.84L129.342 2213.66L98.2997 2267.47L67.1968 2321.29H0V2327.37H67.1968L98.2997 2381.19L129.342 2435H264.161L326.306 2327.37H450.535L491.985 2399.14L512.68 2435H647.5L709.644 2327.37H833.934L879.28 2406.02L896.079 2435H1030.9L1092.98 2327.37H1217.27L1248.31 2381.19L1279.42 2435H1414.24L1476.38 2327.37H1600.61L1642.06 2399.14L1662.76 2435H1797.58L1859.72 2327.37H1983.95L2000.69 2356.35L2046.09 2435H2180.91L2243.06 2327.37H2367.35L2429.43 2435H2564.25L2626.4 2327.37H2750.69L2792.08 2399.14L2812.83 2435H2947.65L3009.73 2327.37H3134.02L3150.76 2356.35L3196.17 2435H3330.99L3393.13 2327.37H3517.36L3548.47 2381.19L3579.51 2435H3652V2431.96H3584.8L3553.7 2378.14L3522.66 2324.33L3553.7 2270.52L3584.8 2216.7H3652V2210.61H3584.8L3553.7 2156.8L3522.66 2102.93L3553.7 2049.11L3584.8 1995.3H3652V1989.21H3584.8L3553.7 1935.4L3522.66 1881.59L3553.7 1827.77L3584.8 1773.96H3652V1767.87H3584.8L3553.7 1714.06L3522.66 1660.24L3553.7 1606.43L3584.8 1552.62H3652V1546.53H3584.8L3553.7 1492.65L3522.66 1438.84L3553.7 1385.03L3584.8 1331.21H3652V1325.13H3584.8L3553.7 1271.31L3522.66 1217.5L3553.7 1163.69L3584.8 1109.87H3652V1103.79H3584.8L3553.7 1049.97L3522.66 996.158L3553.7 942.345L3584.8 888.471H3652V882.383H3584.8L3553.7 828.57L3522.66 774.756L3553.7 720.943L3584.8 667.129H3652V661.042H3584.8L3553.7 607.228L3522.66 553.415L3553.7 499.601L3584.8 445.788H3652V439.7H3584.8L3553.7 385.887L3522.66 332.073L3553.7 278.199L3584.8 224.385H3652V218.298H3584.8L3553.7 164.484L3522.66 110.671L3553.7 56.8572L3584.8 3.04375ZM3201.46 3.04375H3325.69L3387.84 110.671L3325.69 218.298H3201.46L3139.32 110.671L3201.46 3.04375ZM2434.73 1103.79L2372.58 996.158L2434.73 888.471H2559.02L2621.16 996.158L2559.02 1103.79H2434.73ZM2621.16 1217.5L2559.02 1325.13H2434.73L2372.58 1217.5L2434.73 1109.87H2559.02L2621.16 1217.5ZM2429.43 1106.83L2367.35 1214.46H2243.06L2180.91 1106.83L2243.06 999.202H2367.35L2429.43 1106.83ZM2237.76 1217.5L2175.62 1325.13H2051.39L2009.94 1253.36L1989.24 1217.5L2051.39 1109.87H2175.62L2237.76 1217.5ZM2175.62 1103.79H2051.39L1989.24 996.158L2051.39 888.471H2175.62L2237.76 996.158L2175.62 1103.79ZM2000.63 1028L2046.09 1106.83L2000.69 1185.48L1983.95 1214.46H1859.72L1797.58 1106.83L1859.72 999.202H1983.95L2000.63 1028ZM1854.42 1217.5L1792.28 1325.13H1668.05L1651.31 1296.15L1605.91 1217.5L1651.31 1138.85L1668.05 1109.87H1792.28L1854.42 1217.5ZM1792.28 1103.79H1668.05L1651.37 1074.93L1605.91 996.158L1651.31 917.508L1668.05 888.471H1792.28L1854.42 996.158L1792.28 1103.79ZM1662.76 1106.83L1600.61 1214.46H1476.38L1414.24 1106.83L1476.38 999.202H1600.61L1662.76 1106.83ZM1471.09 1217.5L1408.94 1325.13H1284.65L1253.61 1271.31L1222.57 1217.5L1253.61 1163.69L1284.65 1109.87H1408.94L1471.09 1217.5ZM1408.94 1103.79H1284.65L1253.61 1049.97L1222.57 996.158L1253.61 942.345L1284.65 888.471H1408.94L1471.09 996.158L1408.94 1103.79ZM1248.31 1053.02L1279.42 1106.83L1248.31 1160.64L1217.27 1214.46H1092.98L1030.9 1106.83L1092.98 999.202H1217.27L1248.31 1053.02ZM1025.6 1103.79H901.314L839.169 996.158L901.314 888.471H1025.6L1087.75 996.158L1025.6 1103.79ZM1025.6 1109.87L1087.75 1217.5L1025.6 1325.13H901.314L839.169 1217.5L901.314 1109.87H1025.6ZM1025.6 1331.21L1087.75 1438.84L1025.6 1546.53H901.314L839.169 1438.84L901.314 1331.21H1025.6ZM1030.9 1328.17L1092.98 1220.54H1217.27L1248.31 1274.36L1279.42 1328.17L1248.31 1381.98L1217.27 1435.8H1092.98L1030.9 1328.17ZM1253.61 1385.03L1284.65 1331.21H1408.94L1471.09 1438.84L1408.94 1546.53H1284.65L1253.61 1492.65L1222.57 1438.84L1253.61 1385.03ZM1414.24 1328.17L1476.38 1220.54H1600.61L1642.06 1292.32L1662.76 1328.17L1600.61 1435.8H1476.38L1414.24 1328.17ZM1651.31 1360.25L1668.05 1331.21H1792.28L1854.42 1438.84L1792.28 1546.53H1668.05L1651.5 1517.86L1605.91 1438.84L1651.31 1360.25ZM1797.58 1328.17L1859.72 1220.54H1983.95L2000.69 1249.52L2046.09 1328.17L2000.69 1406.82L1983.95 1435.8H1859.72L1797.58 1328.17ZM2051.39 1331.21H2175.62L2237.76 1438.84L2175.62 1546.53H2051.39L1989.24 1438.84L2051.39 1331.21ZM2180.91 1328.17L2243.06 1220.54H2367.35L2429.43 1328.17L2367.35 1435.8H2243.06L2180.91 1328.17ZM2434.73 1331.21H2559.02L2621.16 1438.84L2559.02 1546.53H2434.73L2372.58 1438.84L2434.73 1331.21ZM2564.25 1328.17L2626.4 1220.54H2750.69L2792.08 1292.32L2812.83 1328.17L2750.69 1435.8H2626.4L2564.25 1328.17ZM2626.4 1214.46L2564.25 1106.83L2626.4 999.202H2750.69L2812.83 1106.83L2750.69 1214.46H2626.4ZM2626.4 993.115L2564.25 885.488L2626.4 777.8H2750.69L2792.08 849.571L2812.83 885.427L2750.69 993.115H2626.4ZM2559.02 882.383H2434.73L2372.58 774.756L2434.73 667.129H2559.02L2621.16 774.756L2559.02 882.383ZM2429.43 885.427L2367.35 993.115H2243.06L2180.91 885.427L2243.06 777.8H2367.35L2429.43 885.427ZM2175.62 882.383H2051.39L2009.94 810.672L1989.24 774.756L2051.39 667.129H2175.62L2237.76 774.756L2175.62 882.383ZM2000.69 806.837L2046.09 885.427L2000.69 964.077L1983.95 993.115H1859.72L1797.58 885.427L1859.72 777.8H1983.95L2000.69 806.837ZM1792.28 882.383H1668.05L1651.31 853.407L1605.91 774.756L1651.37 695.984L1668.05 667.129H1792.28L1854.42 774.756L1792.28 882.383ZM1642.06 849.571L1662.76 885.427L1600.61 993.115H1476.38L1414.24 885.488L1476.38 777.8H1600.61L1642.06 849.571ZM1408.94 882.383H1284.65L1253.61 828.57L1222.57 774.756L1253.61 720.943L1284.65 667.129H1408.94L1471.09 774.756L1408.94 882.383ZM1248.31 831.613L1279.42 885.427L1248.31 939.301L1217.27 993.115H1092.98L1030.9 885.427L1092.98 777.8H1217.27L1248.31 831.613ZM1025.6 882.383H901.314L839.169 774.756L901.314 667.129H1025.6L1087.75 774.756L1025.6 882.383ZM879.28 856.45L896.079 885.427L879.28 914.464L833.934 993.115H709.644L647.5 885.427L709.644 777.8H833.934L879.28 856.45ZM833.934 999.202L879.402 1077.97L896.079 1106.83L879.28 1135.81L833.934 1214.46H709.644L647.5 1106.83L709.644 999.202H833.934ZM833.934 1220.54L879.28 1299.19L896.079 1328.17L879.28 1357.21L833.934 1435.8H709.644L647.5 1328.17L709.644 1220.54H833.934ZM833.934 1441.89L879.523 1520.9L896.079 1549.57L879.28 1578.55L833.934 1657.2H709.644L647.5 1549.57L709.644 1441.89H833.934ZM901.314 1552.62H1025.6L1087.75 1660.24L1025.6 1767.87H901.314L839.169 1660.24L901.314 1552.62ZM1030.9 1549.57L1092.98 1441.89H1217.27L1248.31 1495.7L1279.42 1549.57L1248.31 1603.39L1217.27 1657.2H1092.98L1030.9 1549.57ZM1253.61 1606.43L1284.65 1552.62H1408.94L1471.09 1660.24L1408.94 1767.87H1284.65L1253.61 1714.06L1222.57 1660.24L1253.61 1606.43ZM1414.24 1549.57L1476.38 1441.89H1600.61L1662.76 1549.57L1600.61 1657.2H1476.38L1414.24 1549.57ZM1651.31 1581.59L1668.05 1552.62H1792.28L1854.42 1660.24L1792.28 1767.87H1668.05L1651.31 1738.89L1605.91 1660.24L1651.31 1581.59ZM1797.58 1549.57L1859.72 1441.89H1983.95L2000.5 1470.56L2046.09 1549.57L2000.69 1628.16L1983.95 1657.2H1859.72L1797.58 1549.57ZM2051.39 1552.62H2175.62L2237.76 1660.24L2175.62 1767.87H2051.39L2009.94 1696.1L1989.24 1660.24L2051.39 1552.62ZM2180.91 1549.57L2243.06 1441.89H2367.35L2429.43 1549.57L2367.35 1657.2H2243.06L2180.91 1549.57ZM2434.73 1552.62H2559.02L2621.16 1660.24L2559.02 1767.87H2434.73L2372.58 1660.24L2434.73 1552.62ZM2564.25 1549.57L2626.4 1441.89H2750.69L2812.83 1549.57L2750.69 1657.2H2626.4L2564.25 1549.57ZM2801.33 1581.59L2818.07 1552.62H2942.36L3004.5 1660.24L2942.36 1767.87H2818.07L2801.33 1738.89L2755.98 1660.24L2801.33 1581.59ZM2818.07 1546.53L2801.57 1517.86L2755.98 1438.84L2801.33 1360.25L2818.07 1331.21H2942.36L3004.5 1438.84L2942.36 1546.53H2818.07ZM2818.07 1325.13L2801.33 1296.15L2755.98 1217.5L2801.33 1138.85L2818.07 1109.87H2942.36L3004.5 1217.5L2942.36 1325.13H2818.07ZM2818.07 1103.79L2801.45 1074.93L2755.98 996.158L2801.33 917.508L2818.07 888.471H2942.36L3004.5 996.158L2942.36 1103.79H2818.07ZM2818.07 882.383L2801.33 853.407L2755.98 774.756L2801.45 695.984L2818.07 667.129H2942.36L3004.5 774.756L2942.36 882.383H2818.07ZM2818.07 661.042L2801.33 632.065L2755.98 553.415L2801.45 474.581L2818.07 445.788H2942.36L3004.5 553.415L2942.36 661.042H2818.07ZM2792.08 628.23L2812.83 664.085L2750.69 771.712H2626.4L2564.25 664.085L2626.4 556.458H2750.69L2792.08 628.23ZM2559.02 661.042H2434.73L2372.58 553.415L2434.73 445.788H2559.02L2621.16 553.415L2559.02 661.042ZM2429.43 664.085L2367.35 771.712H2243.06L2180.91 664.085L2243.06 556.458H2367.35L2429.43 664.085ZM2175.62 661.042H2051.39L2009.94 589.27L1989.24 553.415L2051.39 445.788H2175.62L2237.76 553.415L2175.62 661.042ZM2000.69 585.435L2046.09 664.085L2000.63 742.918L1983.95 771.712H1859.72L1797.58 664.085L1859.72 556.458H1983.95L2000.69 585.435ZM1792.28 661.042H1668.05L1651.31 632.065L1605.91 553.415L1651.37 474.581L1668.05 445.788H1792.28L1854.42 553.415L1792.28 661.042ZM1642.06 628.23L1662.76 664.085L1600.61 771.712H1476.38L1414.24 664.085L1476.38 556.458H1600.61L1642.06 628.23ZM1408.94 661.042H1284.65L1253.61 607.228L1222.57 553.415L1253.61 499.601L1284.65 445.788H1408.94L1471.09 553.415L1408.94 661.042ZM1248.31 610.272L1279.42 664.085L1248.31 717.899L1217.27 771.712H1092.98L1030.9 664.085L1092.98 556.458H1217.27L1248.31 610.272ZM1025.6 661.042H901.314L839.169 553.415L901.314 445.788H1025.6L1087.75 553.415L1025.6 661.042ZM879.28 635.109L896.079 664.085L879.402 692.94L833.934 771.712H709.644L647.5 664.085L709.644 556.458H833.934L879.28 635.109ZM642.265 661.042H517.975L501.237 632.065L455.83 553.415L501.359 474.581L517.975 445.788H642.265L704.349 553.415L642.265 661.042ZM642.265 667.129L704.349 774.756L642.265 882.383H517.975L501.237 853.407L455.83 774.756L501.359 695.984L517.975 667.129H642.265ZM642.265 888.471L704.349 996.158L642.265 1103.79H517.975L501.359 1074.93L455.83 996.158L501.237 917.508L517.975 888.471H642.265ZM642.265 1109.87L704.349 1217.5L642.265 1325.13H517.975L501.237 1296.15L455.83 1217.5L501.237 1138.85L517.975 1109.87H642.265ZM642.265 1331.21L704.349 1438.84L642.265 1546.53H517.975L501.42 1517.86L455.83 1438.84L501.237 1360.25L517.975 1331.21H642.265ZM642.265 1552.62L704.349 1660.24L642.265 1767.87H517.975L501.237 1738.89L455.83 1660.24L501.237 1581.59L517.975 1552.62H642.265ZM642.265 1773.96L704.349 1881.59L642.265 1989.21H517.975L501.237 1960.24L455.83 1881.59L501.237 1802.93L517.975 1773.96H642.265ZM647.5 1770.91L709.644 1663.29H833.934L879.28 1741.94L896.079 1770.91L879.28 1799.89L833.934 1878.54H709.644L647.5 1770.91ZM901.314 1773.96H1025.6L1087.75 1881.59L1025.6 1989.21H901.314L839.169 1881.59L901.314 1773.96ZM1030.9 1770.91L1092.98 1663.29H1217.27L1248.31 1717.1L1279.42 1770.91L1248.31 1824.73L1217.27 1878.54H1092.98L1030.9 1770.91ZM1253.61 1827.77L1284.65 1773.96H1408.94L1471.09 1881.59L1408.94 1989.21H1284.65L1253.61 1935.4L1222.57 1881.59L1253.61 1827.77ZM1414.24 1770.91L1476.38 1663.29H1600.61L1642.06 1735.06L1662.76 1770.91L1600.61 1878.54H1476.38L1414.24 1770.91ZM1651.31 1802.93L1668.05 1773.96H1792.28L1854.42 1881.59L1792.28 1989.21H1668.05L1651.31 1960.24L1605.91 1881.59L1651.31 1802.93ZM1797.58 1770.91L1859.72 1663.29H1983.95L2000.69 1692.26L2046.09 1770.91L2000.69 1849.57L1983.95 1878.54H1859.72L1797.58 1770.91ZM2051.39 1773.96H2175.62L2237.76 1881.59L2175.62 1989.21H2051.39L2009.94 1917.44L1989.24 1881.59L2051.39 1773.96ZM2180.91 1770.91L2243.06 1663.29H2367.35L2429.43 1770.91L2367.35 1878.54H2243.06L2180.91 1770.91ZM2434.73 1773.96H2559.02L2621.16 1881.59L2559.02 1989.21H2434.73L2372.58 1881.59L2434.73 1773.96ZM2564.25 1770.91L2626.4 1663.29H2750.69L2792.08 1735.06L2812.83 1770.91L2750.69 1878.54H2626.4L2564.25 1770.91ZM2801.33 1802.93L2818.07 1773.96H2942.36L3004.5 1881.59L2942.36 1989.21H2818.07L2801.33 1960.24L2755.98 1881.59L2801.33 1802.93ZM2947.65 1770.91L3009.73 1663.29H3134.02L3150.76 1692.26L3196.17 1770.91L3150.76 1849.57L3134.02 1878.54H3009.73L2947.65 1770.91ZM3009.73 1657.2L2947.65 1549.57L3009.73 1441.89H3134.02L3150.58 1470.56L3196.17 1549.57L3150.76 1628.16L3134.02 1657.2H3009.73ZM3009.73 1435.8L2947.65 1328.17L3009.73 1220.54H3134.02L3150.76 1249.52L3196.17 1328.17L3150.76 1406.82L3134.02 1435.8H3009.73ZM3009.73 1214.46L2947.65 1106.83L3009.73 999.202H3134.02L3150.64 1028L3196.17 1106.83L3150.76 1185.48L3134.02 1214.46H3009.73ZM3009.73 993.115L2947.65 885.427L3009.73 777.8H3134.02L3150.76 806.837L3196.17 885.427L3150.76 964.077L3134.02 993.115H3009.73ZM3009.73 771.712L2947.65 664.085L3009.73 556.458H3134.02L3150.76 585.435L3196.17 664.085L3150.64 742.918L3134.02 771.712H3009.73ZM3009.73 550.371L2947.65 442.744L3009.73 335.117H3134.02L3150.76 364.093L3196.17 442.744L3150.64 521.516L3134.02 550.371H3009.73ZM2942.36 439.7H2818.07L2801.33 410.663L2755.98 332.073L2801.33 253.423L2818.07 224.385H2942.36L3004.5 332.073L2942.36 439.7ZM2792.08 406.828L2812.83 442.744L2750.69 550.371H2626.4L2564.25 442.744L2626.4 335.117H2750.69L2792.08 406.828ZM2559.02 439.7H2434.73L2372.58 332.073L2434.73 224.385H2559.02L2621.16 332.073L2559.02 439.7ZM2429.43 442.744L2367.35 550.371H2243.06L2180.91 442.744L2243.06 335.117H2367.35L2429.43 442.744ZM2175.62 439.7H2051.39L2009.94 367.928L1989.24 332.073L2051.39 224.385H2175.62L2237.76 332.012L2175.62 439.7ZM2000.69 364.093L2046.09 442.744L2000.63 521.516L1983.95 550.371H1859.72L1797.58 442.744L1859.72 335.117H1983.95L2000.69 364.093ZM1792.28 439.7H1668.05L1651.31 410.663L1605.91 332.073L1651.31 253.423L1668.05 224.385H1792.28L1854.42 332.073L1792.28 439.7ZM1642.06 406.828L1662.76 442.744L1600.61 550.371H1476.38L1414.24 442.744L1476.38 335.117H1600.61L1642.06 406.828ZM1408.94 439.7H1284.65L1253.61 385.887L1222.57 332.073L1253.61 278.199L1284.65 224.385H1408.94L1471.09 332.073L1408.94 439.7ZM1248.31 388.93L1279.42 442.744L1248.31 496.557L1217.27 550.371H1092.98L1030.9 442.744L1092.98 335.117H1217.27L1248.31 388.93ZM1025.6 439.7H901.314L839.169 332.073L901.314 224.385H1025.6L1087.75 332.073L1025.6 439.7ZM879.28 413.706L896.079 442.744L879.402 471.538L833.934 550.371H709.644L647.5 442.744L709.644 335.117H833.934L879.28 413.706ZM642.265 439.7H517.975L501.237 410.663L455.83 332.073L501.237 253.423L517.975 224.385H642.265L704.349 332.073L642.265 439.7ZM491.985 406.828L512.68 442.744L450.535 550.371H326.306L264.161 442.744L326.306 335.117H450.535L491.985 406.828ZM450.535 556.458L491.985 628.23L512.68 664.085L450.535 771.712H326.306L264.161 664.085L326.306 556.458H450.535ZM450.535 777.8L491.985 849.571L512.68 885.427L450.535 993.115H326.306L264.161 885.427L326.306 777.8H450.535ZM450.535 999.202L512.68 1106.83L450.535 1214.46H326.306L264.161 1106.83L326.306 999.202H450.535ZM450.535 1220.54L491.985 1292.32L512.68 1328.17L450.535 1435.8H326.306L264.161 1328.17L326.306 1220.54H450.535ZM450.535 1441.89L512.68 1549.57L450.535 1657.2H326.306L264.161 1549.57L326.306 1441.89H450.535ZM450.535 1663.29L491.985 1735.06L512.68 1770.91L450.535 1878.54H326.306L264.161 1770.91L326.306 1663.29H450.535ZM450.535 1884.63L491.985 1956.4L512.68 1992.26L450.535 2099.88H326.306L264.161 1992.26L326.306 1884.63H450.535ZM501.237 2024.34L517.975 1995.3H642.265L704.349 2102.93L642.265 2210.61H517.975L501.42 2181.94L455.83 2102.93L501.237 2024.34ZM647.5 1992.26L709.644 1884.63H833.934L879.28 1963.28L896.079 1992.26L879.28 2021.29L833.934 2099.88H709.644L647.5 1992.26ZM901.314 1995.3H1025.6L1087.75 2102.93L1025.6 2210.61H901.314L839.169 2102.93L901.314 1995.3ZM1030.9 1992.26L1092.98 1884.63H1217.27L1248.31 1938.44L1279.42 1992.26L1248.31 2046.07L1217.27 2099.88H1092.98L1030.9 1992.26ZM1253.61 2049.11L1284.65 1995.3H1408.94L1471.09 2102.93L1408.94 2210.61H1284.65L1253.61 2156.8L1222.57 2102.93L1253.61 2049.11ZM1414.24 1992.26L1476.38 1884.63H1600.61L1642.06 1956.4L1662.76 1992.26L1600.61 2099.88H1476.38L1414.24 1992.26ZM1651.31 2024.34L1668.05 1995.3H1792.28L1854.42 2102.93L1792.28 2210.61H1668.05L1651.5 2181.94L1605.91 2102.93L1651.31 2024.34ZM1797.58 1992.26L1859.72 1884.63H1983.95L2000.69 1913.61L2046.09 1992.26L2000.69 2070.91L1983.95 2099.88H1859.72L1797.58 1992.26ZM2051.39 1995.3H2175.62L2237.76 2102.93L2175.62 2210.61H2051.39L1989.24 2102.93L2051.39 1995.3ZM2180.91 1992.26L2243.06 1884.63H2367.35L2429.43 1992.26L2367.35 2099.88H2243.06L2180.91 1992.26ZM2434.73 1995.3H2559.02L2621.16 2102.93L2559.02 2210.61H2434.73L2372.58 2102.93L2434.73 1995.3ZM2564.25 1992.26L2626.4 1884.63H2750.69L2792.08 1956.4L2812.83 1992.26L2750.69 2099.88H2626.4L2564.25 1992.26ZM2801.33 2024.34L2818.07 1995.3H2942.36L3004.5 2102.93L2942.36 2210.61H2818.07L2801.57 2181.94L2755.98 2102.93L2801.33 2024.34ZM2947.65 1992.26L3009.73 1884.63H3134.02L3150.76 1913.61L3196.17 1992.26L3150.76 2070.91L3134.02 2099.88H3009.73L2947.65 1992.26ZM3201.46 1995.3H3325.69L3387.84 2102.93L3325.69 2210.61H3201.46L3139.32 2102.93L3201.46 1995.3ZM3201.46 1989.21L3160.01 1917.44L3139.32 1881.59L3201.46 1773.96H3325.69L3387.84 1881.59L3325.69 1989.21H3201.46ZM3201.46 1767.87L3160.01 1696.1L3139.32 1660.24L3201.46 1552.62H3325.69L3387.84 1660.24L3325.69 1767.87H3201.46ZM3201.46 1546.53L3139.32 1438.84L3201.46 1331.21H3325.69L3387.84 1438.84L3325.69 1546.53H3201.46ZM3201.46 1325.13L3160.01 1253.36L3139.32 1217.5L3201.46 1109.87H3325.69L3387.84 1217.5L3325.69 1325.13H3201.46ZM3201.46 1103.79L3139.32 996.158L3201.46 888.471H3325.69L3387.84 996.158L3325.69 1103.79H3201.46ZM3201.46 882.383L3160.01 810.672L3139.32 774.756L3201.46 667.129H3325.69L3387.84 774.756L3325.69 882.383H3201.46ZM3201.46 661.042L3160.01 589.27L3139.32 553.415L3201.46 445.788H3325.69L3387.84 553.415L3325.69 661.042H3201.46ZM3201.46 439.7L3160.01 367.928L3139.32 332.073L3201.46 224.385H3325.69L3387.84 332.073L3325.69 439.7H3201.46ZM3134.02 113.714L3150.64 142.569L3196.17 221.341L3150.76 299.992L3134.02 329.029H3009.73L2947.65 221.341L3009.73 113.714H3134.02ZM2801.33 32.0203L2818.07 3.04375H2942.36L3004.5 110.671L2942.36 218.298H2818.07L2801.45 189.504L2755.98 110.671L2801.33 32.0203ZM2750.69 113.714L2812.83 221.341L2750.69 329.029H2626.4L2564.25 221.341L2626.4 113.714H2750.69ZM2434.73 3.04375H2559.02L2621.16 110.671L2559.02 218.298H2434.73L2372.58 110.671L2434.73 3.04375ZM2367.35 113.714L2429.43 221.341L2367.35 329.029H2243.06L2180.91 221.341L2243.06 113.714H2367.35ZM2051.39 3.04375H2175.62L2237.76 110.671L2175.62 218.298H2051.39L1989.24 110.671L2051.39 3.04375ZM1983.95 113.714L2000.63 142.569L2046.09 221.341L2000.69 299.992L1983.95 329.029H1859.72L1797.58 221.341L1859.72 113.714H1983.95ZM1651.31 32.0203L1668.05 3.04375H1792.28L1854.42 110.671L1792.28 218.298H1668.05L1651.37 189.504L1605.91 110.671L1651.31 32.0203ZM1600.61 113.714L1662.76 221.341L1600.61 329.029H1476.38L1414.24 221.341L1476.38 113.714H1600.61ZM1253.61 56.8572L1284.65 3.04375H1408.94L1471.09 110.671L1408.94 218.298H1284.65L1253.61 164.484L1222.57 110.671L1253.61 56.8572ZM1217.27 113.714L1248.31 167.528L1279.42 221.341L1248.31 275.155L1217.27 329.029H1092.98L1030.9 221.341L1092.98 113.714H1217.27ZM901.314 3.04375H1025.6L1087.75 110.671L1025.6 218.298H901.314L839.169 110.671L901.314 3.04375ZM833.934 113.714L879.402 192.548L896.079 221.341L879.28 250.379L833.934 329.029H709.644L647.5 221.341L709.644 113.714H833.934ZM501.237 32.0203L517.975 3.04375H642.265L704.349 110.671L642.265 218.298H517.975L501.359 189.504L455.83 110.671L501.237 32.0203ZM450.535 113.714L512.68 221.341L450.535 329.029H326.306L264.161 221.341L326.306 113.714H450.535ZM103.534 164.484L72.4922 110.671L103.534 56.8572L134.637 3.04375H258.866L321.011 110.671L258.866 218.298H134.637L103.534 164.484ZM103.534 385.887L72.4922 332.073L103.534 278.199L134.637 224.385H258.866L321.011 332.073L258.866 439.7H134.637L103.534 385.887ZM103.534 607.228L72.4922 553.415L103.534 499.601L134.637 445.788H258.866L321.011 553.415L258.866 661.042H134.637L103.534 607.228ZM103.534 828.57L72.4922 774.756L103.534 720.943L134.637 667.129H258.866L321.011 774.756L258.866 882.383H134.637L103.534 828.57ZM103.534 1049.97L72.4922 996.158L103.534 942.345L134.637 888.471H258.866L321.011 996.158L258.866 1103.79H134.637L103.534 1049.97ZM103.534 1271.31L72.4922 1217.5L103.534 1163.69L134.637 1109.87H258.866L321.011 1217.5L258.866 1325.13H134.637L103.534 1271.31ZM103.534 1492.65L72.4922 1438.84L103.534 1385.03L134.637 1331.21H258.866L321.011 1438.84L258.866 1546.53H134.637L103.534 1492.65ZM103.534 1714.06L72.4922 1660.24L103.534 1606.43L134.637 1552.62H258.866L321.011 1660.24L258.866 1767.87H134.637L103.534 1714.06ZM103.534 1935.4L72.4922 1881.59L103.534 1827.77L134.637 1773.96H258.866L321.011 1881.59L258.866 1989.21H134.637L103.534 1935.4ZM103.534 2156.8L72.4922 2102.93L103.534 2049.11L134.637 1995.3H258.866L321.011 2102.93L258.866 2210.61H134.637L103.534 2156.8ZM258.866 2431.96H134.637L103.534 2378.14L72.4922 2324.33L103.534 2270.52L134.637 2216.7H258.866L321.011 2324.33L258.866 2431.96ZM326.306 2321.29L264.161 2213.66L326.306 2105.97H450.535L512.68 2213.66L450.535 2321.29H326.306ZM642.265 2431.96H517.975L501.237 2402.98L455.83 2324.33L501.237 2245.68L517.975 2216.7H642.265L704.349 2324.33L642.265 2431.96ZM709.644 2321.29L647.5 2213.66L709.644 2105.97H833.934L879.523 2184.99L896.079 2213.66L879.28 2242.63L833.934 2321.29H709.644ZM1025.6 2431.96H901.314L839.169 2324.33L901.314 2216.7H1025.6L1087.75 2324.33L1025.6 2431.96ZM1092.98 2321.29L1030.9 2213.66L1092.98 2105.97H1217.27L1248.31 2159.84L1279.42 2213.66L1248.31 2267.47L1217.27 2321.29H1092.98ZM1408.94 2431.96H1284.65L1253.61 2378.14L1222.57 2324.33L1253.61 2270.52L1284.65 2216.7H1408.94L1471.09 2324.33L1408.94 2431.96ZM1476.38 2321.29L1414.24 2213.66L1476.38 2105.97H1600.61L1662.76 2213.66L1600.61 2321.29H1476.38ZM1792.28 2431.96H1668.05L1651.31 2402.98L1605.91 2324.33L1651.31 2245.68L1668.05 2216.7H1792.28L1854.42 2324.33L1792.28 2431.96ZM1859.72 2321.29L1797.58 2213.66L1859.72 2105.97H1983.95L2000.5 2134.64L2046.09 2213.66L2000.69 2292.25L1983.95 2321.29H1859.72ZM2175.62 2431.96H2051.39L2009.94 2360.18L1989.24 2324.33L2051.39 2216.7H2175.62L2237.76 2324.33L2175.62 2431.96ZM2243.06 2321.29L2180.91 2213.66L2243.06 2105.97H2367.35L2429.43 2213.66L2367.35 2321.29H2243.06ZM2559.02 2431.96H2434.73L2372.58 2324.33L2434.73 2216.7H2559.02L2621.16 2324.33L2559.02 2431.96ZM2626.4 2321.29L2564.25 2213.66L2626.4 2105.97H2750.69L2812.83 2213.66L2750.69 2321.29H2626.4ZM2942.36 2431.96H2818.07L2801.33 2402.98L2755.98 2324.33L2801.33 2245.68L2818.07 2216.7H2942.36L3004.5 2324.33L2942.36 2431.96ZM3009.73 2321.29L2947.65 2213.66L3009.73 2105.97H3134.02L3150.58 2134.64L3196.17 2213.66L3150.76 2292.25L3134.02 2321.29H3009.73ZM3325.69 2431.96H3201.46L3160.01 2360.18L3139.32 2324.33L3201.46 2216.7H3325.69L3387.84 2324.33L3325.69 2431.96ZM3548.47 2159.84L3579.51 2213.66L3548.47 2267.47L3517.36 2321.29H3393.13L3330.99 2213.66L3393.13 2105.97H3517.36L3548.47 2159.84ZM3548.47 1938.44L3579.51 1992.26L3548.47 2046.07L3517.36 2099.88H3393.13L3330.99 1992.26L3393.13 1884.63H3517.36L3548.47 1938.44ZM3548.47 1717.1L3579.51 1770.91L3548.47 1824.73L3517.36 1878.54H3393.13L3330.99 1770.91L3393.13 1663.29H3517.36L3548.47 1717.1ZM3548.47 1495.7L3579.51 1549.57L3548.47 1603.39L3517.36 1657.2H3393.13L3330.99 1549.57L3393.13 1441.89H3517.36L3548.47 1495.7ZM3548.47 1274.36L3579.51 1328.17L3548.47 1381.98L3517.36 1435.8H3393.13L3330.99 1328.17L3393.13 1220.54H3517.36L3548.47 1274.36ZM3548.47 1053.02L3579.51 1106.83L3548.47 1160.64L3517.36 1214.46H3393.13L3330.99 1106.83L3393.13 999.202H3517.36L3548.47 1053.02ZM3548.47 831.613L3579.51 885.427L3548.47 939.301L3517.36 993.115H3393.13L3330.99 885.427L3393.13 777.8H3517.36L3548.47 831.613ZM3548.47 610.272L3579.51 664.085L3548.47 717.899L3517.36 771.712H3393.13L3330.99 664.085L3393.13 556.458H3517.36L3548.47 610.272ZM3548.47 388.93L3579.51 442.744L3548.47 496.557L3517.36 550.371H3393.13L3330.99 442.744L3393.13 335.117H3517.36L3548.47 388.93ZM3548.47 167.528L3579.51 221.341L3548.47 275.155L3517.36 329.029H3393.13L3330.99 221.341L3393.13 113.714H3517.36L3548.47 167.528Z" fill="#FEFCEC"/>
</svg>
