<svg width="322" height="112" viewBox="0 0 322 112" fill="none" xmlns="http://www.w3.org/2000/svg">
<g clip-path="url(#clip0_254_134)">
<path d="M292.12 38.5452C290.137 40.097 285.154 45.1227 283.775 46.9626C279.127 52.6977 281.292 50.5558 281.131 44.9242C281.112 44.4751 281.114 43.6815 281.135 43.1608C281.245 40.4822 280.405 36.388 279.106 33.271C277.968 30.2032 275.639 31.2142 274.33 32.7162C272.181 35.2264 270.158 41.3991 270.334 44.9139C270.228 46.9966 270.333 48.6961 270.57 50.7275L269.217 47.6739C266.394 41.3 264.488 38.6039 262.093 37.597C260.277 36.842 258.15 37.0136 256.941 39.0486C256.381 45.7597 261.06 51.8118 263.172 58.2136C263.215 58.4443 262.732 58.2631 261.28 57.5037C258.487 56.0428 251.386 52.7728 249.002 52.104C246.319 51.3764 238.785 50.809 242.598 56.1126C245.462 59.8267 252.199 64.4842 257.161 67.3433C257.445 67.4565 257.64 67.6341 257.596 67.7381C257.551 67.8421 256.335 68.1399 254.893 68.4002C249.003 69.4633 245.96 70.3468 242.276 72.0623C239.918 73.1253 234.554 74.2154 237.504 77.128C238.52 78.22 238.745 78.3619 240.035 78.7213C245.172 79.9811 252.814 77.1846 259.032 76.2836C256.773 78.0649 253.449 80.8386 249.11 84.4876C247.784 85.5594 246.715 87.173 245.862 88.7885C244.363 92.0045 242.103 96.0189 247.608 96.3609C249.252 96.3935 253.402 94.5071 255.564 92.7439C257.034 91.5576 258.834 90.6034 260.298 89.2683C261.944 87.7633 261.935 87.9738 260.176 92.1456C258.355 96.4623 257.971 98.0709 258.147 100.642C258.349 103.309 260.062 104.669 262.866 104.176C263.89 103.83 264.321 103.367 266.387 100.401C267.757 98.4357 269.24 96.3854 270.304 94.0213C270.938 93.0165 271.827 91.2942 272.28 90.1937C272.959 88.5439 273.163 88.2179 273.443 88.3382C273.63 88.4186 273.848 88.8962 273.927 89.4009C274.3 91.7877 277.222 98.2507 278.747 100.06C281.943 104.608 286.908 105.706 287.889 99.8243C288.002 95.7129 285.539 90.4521 284.098 86.6672C283.347 85.098 283.276 84.8183 283.731 85.2149C284.041 85.485 285.773 86.3702 287.581 87.1817C290.588 88.5316 291.092 88.6936 293.499 89.0867C296.856 89.6351 298.964 89.5697 300.963 88.8546C302.391 88.344 302.596 88.1902 302.949 87.3659C303.296 86.5551 303.272 86.3157 302.745 85.3366C301.578 83.2537 299.496 81.5352 297.728 79.9999C297.461 79.8559 296.331 79.1249 295.219 78.3754C294.106 77.6258 292.961 76.9138 292.674 76.7932C292.159 76.7051 292.163 76.0935 292.633 76.2793C293.05 76.4547 295.927 76.3674 298.149 76.1123C299.886 76.0528 301.661 75.6517 303.014 75.3197C307.22 74.2839 311.266 72.543 311.571 71.2959C312.056 69.3068 309.898 68.9675 308.593 68.2302C306.449 67.0138 302.034 65.4501 299.514 65.0147C298.896 64.908 297.885 64.7326 297.267 64.6249C296.65 64.5172 295.54 64.433 294.801 64.4375C292.795 64.45 292.693 64.2637 294.297 63.5204C298.744 61.4602 303.581 57.9927 306.217 54.9753C307.593 53.3992 307.696 53.0351 306.979 52.2645C305.889 51.0916 304.687 50.9038 301.139 51.3521C298.532 51.6898 294.934 52.937 292.395 54.0867C292.179 54.2495 291.53 54.4312 292.123 53.7634C293.295 52.6104 294.355 51.3027 294.974 50.5538C297.739 47.2189 299.496 42.8608 299.167 40.156C297.885 35.9193 294.404 36.7718 292.12 38.5452ZM295.936 39.5717C296.51 39.835 296.788 40.6096 296.43 41.8564C295.859 46.3994 290.381 53.3391 283.845 57.8002C282.165 58.5698 280.85 60.4754 280.094 61.3393C277.59 64.2017 280.012 67.3764 282.209 64.4421C282.961 63.4322 284.311 62.2081 286.889 60.1984C290.953 57.0316 291.431 56.7378 294.839 55.3194C297.595 54.0948 301.178 53.1398 303.936 53.204C305.079 53.7215 298.198 58.6503 293.694 61.4055C289.273 63.711 286.747 64.9886 285.984 65.3058C283.294 66.423 282.324 67.0594 282.172 67.8066C281.992 68.6898 282.624 68.6998 284.912 67.85C288.375 66.605 292.539 66.362 296.361 66.4297C298.555 66.2536 306.312 68.8051 308.325 70.5437C308.349 72.1824 305.369 72.7744 303.569 73.235C298.85 74.4425 287.747 74.4017 281.907 72.2577C281.702 72.1761 281.406 71.4214 281.241 70.5573C281.078 69.7028 280.705 68.4105 280.414 67.6858C280.277 67.3447 280.177 67.0947 280.113 66.903C279.499 66.0019 278.499 65.1904 277.409 64.5153C277.207 64.4387 277.002 64.3342 276.806 64.1991C275.951 63.6107 274.45 63.2237 273.02 63.2233C270.036 63.2212 272.495 63.4779 272.818 61.5675C272.839 61.1904 272.992 60.0085 273.158 58.9411C273.606 55.9768 272.78 52.7511 272.824 49.6303C272.483 44.3069 272.758 41.7637 274.052 38.2521C274.915 35.9314 276.528 32.3142 277.504 37.6721C278.324 40.7267 278.431 44.4901 278.489 47.7414C278.66 51.0472 277.217 54.2039 276.421 57.3826C275.648 59.3979 275.894 59.1022 275.526 60.6577C275.658 62.6875 276.666 62.137 278.589 59.1097C279.855 56.5508 281.661 54.0014 283.315 51.4903C286.302 47.279 289.405 43.9468 293.96 40.0959C294.694 39.505 295.43 39.3394 295.936 39.5717ZM260.418 39.8486C260.814 40.0339 261.358 40.4913 262.086 41.3137C263.494 42.8385 263.834 43.4396 265.781 47.8397C268.233 53.3785 268.879 55.1265 269.48 57.8424C269.824 59.3978 270.087 60.2195 270.696 61.6491C271.146 62.7055 271.564 62.7997 270.274 62.9481C267.732 63.4148 265.77 64.5877 264.81 66.9807L264.074 68.6996L263.415 68.2983C262.464 67.7429 261.293 67.812 260.281 67.7274C260.058 67.718 259.81 67.4776 259.712 67.1767C260.473 66.2444 248.773 58.4994 246.213 55.8923C244.572 54.9439 244.806 53.6735 246.457 54.1443C250.038 54.3402 260.8 58.9761 263.604 61.5306C264.347 62.2071 264.171 61.8873 265.173 62.7894C266.422 63.7915 267.644 63.4182 267.218 61.1741C264.443 55.5734 262.071 49.6399 260.155 44.0653C259.47 41.997 259.002 39.1866 260.418 39.8486ZM275.687 65.1783C276.629 65.5744 277.662 66.5499 277.965 67.331C278.091 67.6536 278.254 68.5978 278.327 69.4292C278.627 72.8209 276.39 74.9514 272.542 74.9404C269.358 74.9313 267.962 73.847 267.39 70.9383C267.003 68.9711 268.444 66.5749 270.679 65.4686C271.777 64.9251 274.685 64.7566 275.687 65.1783ZM277.298 67.465C277.145 67.3873 276.928 67.3478 276.595 67.3193C275.815 67.2526 275.432 67.5145 275.637 67.973C275.808 68.3557 276.959 68.6956 277.392 68.4916C277.747 68.3245 277.788 68.2076 277.623 67.8389C277.542 67.6583 277.452 67.5427 277.298 67.465ZM277.762 70.0829C277.224 69.8023 275.454 69.8946 275.296 70.2461C275.117 70.6448 275.331 71.3848 275.726 71.7306C276.227 72.1695 276.503 72.2423 276.92 72.0457C277.511 71.7673 278.166 70.4311 277.852 70.1439C277.828 70.1218 277.798 70.1016 277.762 70.0829ZM287.683 76.2566C288.862 76.7606 290.183 77.5053 292.052 78.6874C293.438 79.5646 295.21 80.6404 296.565 81.9238C298.134 83.203 299.95 85.6241 299.906 86.3778C299.629 88.1991 293.059 86.9283 292.356 86.7242C287.621 85.3553 280.803 80.4642 277.709 76.6226C279.073 75.8832 279.741 75.1401 280.867 73.9407L282.382 74.5395C283.215 74.869 284.675 75.3316 285.627 75.5672C286.319 75.7386 286.975 75.9542 287.683 76.2566ZM270.098 69.2809C269.902 69.2061 269.584 69.2122 269.125 69.2802C268.234 69.4122 267.811 70.3076 268.045 71.5634C268.243 72.6263 268.688 72.9025 269.321 72.3562C269.948 71.8155 269.825 72.1291 270.163 72.8342C270.376 73.3118 270.715 73.7715 270.915 73.8557C271.448 74.0796 272.171 73.2766 272.13 72.5067C272.087 71.6817 271.511 71.2365 270.652 71.3638C269.618 71.514 269.723 71.4159 270.123 70.4163C270.406 69.7547 270.423 69.4055 270.098 69.2809ZM274.249 71.7961C273.987 71.6878 273.654 71.6384 273.231 71.639C272.338 71.6404 272.269 71.875 272.814 73.0541C273.364 74.2421 273.331 74.2166 274.127 74.0741C274.891 73.9374 275.237 73.2813 274.942 72.5249C274.805 72.172 274.587 71.9353 274.249 71.7961ZM263.826 70.4334C264.029 70.5319 264.176 70.8145 264.617 71.7822C265.556 73.9215 266.874 75.4327 268.591 76.3365L269.957 77.0553C268.778 77.9646 267.88 78.8837 266.999 80.2197C263.629 85.0033 256.595 88.3304 251.866 92.334C251.193 92.8614 247.143 95.1786 247.145 93.2412C248.264 88.7473 251.507 85.0419 255.544 81.9272C256.418 81.2017 260.057 77.5965 260.792 76.9486C261.733 76.1298 265.56 72.0253 261.434 73.2095C256.341 74.8872 246.336 77.3907 240.566 76.4567C239.485 75.8604 239.926 75.3729 242.702 74.0921C246.451 72.4054 251.253 71.1678 255.779 70.3619C258.11 69.8505 261.503 69.7669 262.701 70.1911C263.366 70.421 263.624 70.335 263.826 70.4334ZM274.86 77.5542C278.27 78.9623 281.535 86.6484 282.661 89.4404C283.986 92.7976 284.993 96.7832 284.439 100.505C284.156 102.185 280.193 97.7466 279.613 96.0496C277.252 91.9961 276.173 87.2689 275.386 82.8169C275.235 82.0703 275.042 80.9266 274.957 80.2759C274.785 79.0057 273.713 78.1789 272.448 79.6384C271.76 80.6827 272.546 82.2505 272.127 83.5593C271.83 84.6658 268.221 93.1745 267.79 93.7852C266.302 95.9449 265.279 98.068 263.352 100.104C261.134 102.569 260.988 100.799 261.126 97.7025C261.309 96.3588 261.695 95.0865 262.527 93.0818C264.206 89.0993 266.406 85.0737 269.288 81.6667C270.529 80.3161 271.89 78.7813 272.248 78.3293C272.762 77.5288 273.012 77.4078 274.177 77.3596C274.405 77.3943 274.633 77.4604 274.86 77.5542Z" fill="#518828"/>
<path d="M287.848 39.6241C287.848 41.2241 287.16 42.5201 285.784 43.5121C284.408 44.5041 282.323 45.0001 279.528 45.0001H267.544C267.181 45.0001 266.915 44.9254 266.744 44.7761C266.573 44.6268 266.488 44.4294 266.488 44.1841C266.488 43.7361 266.723 43.4321 267.192 43.2721L267.976 43.0641C268.243 42.9788 268.44 42.8614 268.568 42.7121C268.707 42.5521 268.776 42.3494 268.776 42.1041V25.4641C268.776 25.2294 268.712 25.0374 268.584 24.8881C268.456 24.7388 268.253 24.6214 267.976 24.5361L267.192 24.3281C266.723 24.1681 266.488 23.8641 266.488 23.4161C266.488 23.1601 266.573 22.9628 266.744 22.8241C266.915 22.6748 267.181 22.6001 267.544 22.6001H276.808C278.867 22.6001 280.621 22.8774 282.072 23.4321C283.523 23.9761 284.632 24.7388 285.4 25.7201C286.179 26.6908 286.568 27.8321 286.568 29.1441C286.568 30.2214 286.253 31.1761 285.624 32.0081C285.005 32.8401 284.099 33.4961 282.904 33.9761C281.709 34.4454 280.248 34.6801 278.52 34.6801L279.336 34.1521C281.043 34.1521 282.531 34.3814 283.8 34.8401C285.069 35.2988 286.061 35.9441 286.776 36.7761C287.491 37.5974 287.848 38.5468 287.848 39.6241ZM277.352 35.3681H273.32V33.9601H276.84C277.715 33.9601 278.445 33.7948 279.032 33.4641C279.619 33.1334 280.061 32.6374 280.36 31.9761C280.659 31.3041 280.808 30.4721 280.808 29.4801C280.808 28.4134 280.611 27.4854 280.216 26.6961C279.821 25.9068 279.251 25.2988 278.504 24.8721C277.768 24.4348 276.883 24.2161 275.848 24.2161H274.888V41.7681C274.888 42.3228 275.048 42.7334 275.368 43.0001C275.699 43.2561 276.173 43.3841 276.792 43.3841H278.12C278.899 43.3841 279.56 43.2294 280.104 42.9201C280.648 42.6001 281.064 42.1468 281.352 41.5601C281.64 40.9628 281.784 40.2588 281.784 39.4481C281.784 38.1894 281.4 37.1974 280.632 36.4721C279.875 35.7361 278.781 35.3681 277.352 35.3681ZM304.772 35.5761C304.772 36.1734 304.607 36.6374 304.276 36.9681C303.945 37.2881 303.471 37.4481 302.852 37.4481H293.076V36.1201H298.484C299.007 36.1201 299.268 35.8748 299.268 35.3841C299.268 33.9441 299.06 32.8828 298.644 32.2001C298.228 31.5174 297.684 31.1761 297.012 31.1761C296.5 31.1761 296.041 31.3468 295.636 31.6881C295.241 32.0294 294.927 32.5414 294.692 33.2241C294.468 33.8961 294.356 34.7334 294.356 35.7361C294.356 37.7628 294.815 39.2668 295.732 40.2481C296.66 41.2188 297.897 41.7041 299.444 41.7041C300.308 41.7041 301.065 41.5548 301.716 41.2561C302.377 40.9468 302.921 40.4721 303.348 39.8321C303.572 39.6081 303.743 39.4588 303.86 39.3841C303.988 39.3094 304.111 39.2721 304.228 39.2721C304.399 39.2721 304.527 39.3521 304.612 39.5121C304.697 39.6721 304.74 39.8748 304.74 40.1201C304.708 41.0694 304.383 41.9494 303.764 42.7601C303.156 43.5601 302.313 44.2054 301.236 44.6961C300.169 45.1761 298.937 45.4161 297.54 45.4161C295.972 45.4161 294.575 45.0961 293.348 44.4561C292.121 43.8161 291.156 42.9254 290.452 41.7841C289.748 40.6428 289.396 39.3094 289.396 37.7841C289.396 36.1201 289.727 34.6641 290.388 33.4161C291.049 32.1574 292.004 31.1761 293.252 30.4721C294.5 29.7681 295.999 29.4161 297.748 29.4161C299.263 29.4161 300.543 29.6828 301.588 30.2161C302.633 30.7388 303.423 31.4641 303.956 32.3921C304.5 33.3201 304.772 34.3814 304.772 35.5761ZM321.96 35.5761C321.96 36.1734 321.794 36.6374 321.464 36.9681C321.133 37.2881 320.658 37.4481 320.04 37.4481H310.264V36.1201H315.672C316.194 36.1201 316.456 35.8748 316.456 35.3841C316.456 33.9441 316.248 32.8828 315.832 32.2001C315.416 31.5174 314.872 31.1761 314.2 31.1761C313.688 31.1761 313.229 31.3468 312.824 31.6881C312.429 32.0294 312.114 32.5414 311.88 33.2241C311.656 33.8961 311.544 34.7334 311.544 35.7361C311.544 37.7628 312.002 39.2668 312.92 40.2481C313.848 41.2188 315.085 41.7041 316.632 41.7041C317.496 41.7041 318.253 41.5548 318.904 41.2561C319.565 40.9468 320.109 40.4721 320.536 39.8321C320.76 39.6081 320.93 39.4588 321.048 39.3841C321.176 39.3094 321.298 39.2721 321.416 39.2721C321.586 39.2721 321.714 39.3521 321.8 39.5121C321.885 39.6721 321.928 39.8748 321.928 40.1201C321.896 41.0694 321.57 41.9494 320.952 42.7601C320.344 43.5601 319.501 44.2054 318.424 44.6961C317.357 45.1761 316.125 45.4161 314.727 45.4161C313.16 45.4161 311.762 45.0961 310.536 44.4561C309.309 43.8161 308.344 42.9254 307.64 41.7841C306.936 40.6428 306.584 39.3094 306.584 37.7841C306.584 36.1201 306.914 34.6641 307.576 33.4161C308.237 32.1574 309.192 31.1761 310.44 30.4721C311.688 29.7681 313.186 29.4161 314.936 29.4161C316.45 29.4161 317.73 29.6828 318.776 30.2161C319.821 30.7388 320.61 31.4641 321.144 32.3921C321.688 33.3201 321.96 34.3814 321.96 35.5761Z" fill="#ECA214"/>
<path d="M94.464 23.048H121.888V24.488H94.464V23.048ZM96.928 42.056C96.928 42.4187 97.045 42.7066 97.28 42.9199C97.515 43.1332 97.856 43.2719 98.304 43.3359L101.056 43.7519C101.568 43.8586 101.824 44.0827 101.824 44.424C101.824 44.5947 101.76 44.7333 101.632 44.84C101.504 44.9467 101.291 45 100.992 45H88.128C87.851 45 87.648 44.9467 87.52 44.84C87.392 44.7333 87.328 44.5947 87.328 44.424C87.328 44.0827 87.573 43.8586 88.064 43.7519L90.848 43.3359C91.296 43.2719 91.637 43.1332 91.872 42.9199C92.107 42.7066 92.224 42.4187 92.224 42.056V3.14395C92.224 2.78128 92.107 2.49328 91.872 2.27995C91.637 2.06662 91.296 1.92795 90.848 1.86395L88.064 1.44795C87.573 1.34128 87.328 1.11728 87.328 0.775951C87.328 0.583951 87.392 0.445281 87.52 0.359951C87.648 0.253281 87.851 0.199951 88.128 0.199951H100.992C101.291 0.199951 101.504 0.253281 101.632 0.359951C101.76 0.445281 101.824 0.583951 101.824 0.775951C101.824 1.11728 101.568 1.34128 101.056 1.44795L98.304 1.86395C97.856 1.92795 97.515 2.06662 97.28 2.27995C97.045 2.49328 96.928 2.78128 96.928 3.14395V42.056ZM124.928 42.056C124.928 42.4187 125.045 42.7066 125.28 42.9199C125.515 43.1332 125.845 43.2719 126.272 43.3359L129.056 43.7519C129.568 43.8586 129.824 44.0827 129.824 44.424C129.824 44.5947 129.76 44.7333 129.632 44.84C129.504 44.9467 129.291 45 128.992 45H116.128C115.851 45 115.637 44.9467 115.488 44.84C115.36 44.7333 115.296 44.5947 115.296 44.424C115.296 44.0827 115.552 43.8586 116.064 43.7519L118.848 43.3359C119.296 43.2719 119.627 43.1332 119.84 42.9199C120.075 42.7066 120.192 42.4187 120.192 42.056V3.14395C120.192 2.78128 120.075 2.49328 119.84 2.27995C119.627 2.06662 119.296 1.92795 118.848 1.86395L116.064 1.44795C115.552 1.34128 115.296 1.11728 115.296 0.775951C115.296 0.583951 115.36 0.445281 115.488 0.359951C115.637 0.253281 115.851 0.199951 116.128 0.199951H128.992C129.291 0.199951 129.504 0.253281 129.632 0.359951C129.76 0.445281 129.824 0.583951 129.824 0.775951C129.824 1.11728 129.568 1.34128 129.056 1.44795L126.272 1.86395C125.845 1.92795 125.515 2.06662 125.28 2.27995C125.045 2.49328 124.928 2.78128 124.928 3.14395V42.056ZM150.277 15.464C153.093 15.464 155.589 16.1147 157.765 17.416C159.962 18.696 161.69 20.4773 162.949 22.76C164.208 25.0213 164.837 27.6346 164.837 30.5999C164.837 33.5439 164.208 36.1467 162.949 38.408C161.69 40.6693 159.952 42.4506 157.733 43.7519C155.536 45.0319 152.986 45.672 150.085 45.672C147.269 45.672 144.773 45.0319 142.597 43.7519C140.421 42.4719 138.704 40.7012 137.445 38.4399C136.208 36.1572 135.589 33.5439 135.589 30.5999C135.589 27.6346 136.208 25.0213 137.445 22.76C138.682 20.4773 140.4 18.696 142.597 17.416C144.794 16.1147 147.354 15.464 150.277 15.464ZM152.165 44.1679C154.17 43.9332 155.834 43.1867 157.157 41.928C158.501 40.6693 159.45 38.9733 160.005 36.84C160.56 34.7067 160.645 32.2212 160.261 29.3839C159.898 26.4826 159.162 24.072 158.053 22.152C156.944 20.2107 155.546 18.8027 153.861 17.928C152.197 17.032 150.33 16.712 148.261 16.968C146.192 17.1813 144.485 17.928 143.141 19.208C141.818 20.488 140.89 22.1946 140.357 24.3279C139.845 26.4612 139.77 28.9359 140.133 31.7519C140.496 34.5892 141.232 36.9786 142.341 38.9199C143.472 40.8612 144.88 42.2799 146.565 43.1759C148.25 44.0719 150.117 44.4026 152.165 44.1679ZM177.937 16.648V42.1199C177.937 42.5252 178.033 42.8347 178.225 43.048C178.438 43.2613 178.737 43.4106 179.121 43.4959L181.041 43.816C181.51 43.9227 181.745 44.1253 181.745 44.424C181.745 44.808 181.478 45 180.945 45H170.577C170.342 45 170.161 44.9467 170.033 44.84C169.905 44.7333 169.841 44.6053 169.841 44.456C169.841 44.3067 169.894 44.1893 170.001 44.104C170.129 43.9973 170.31 43.9119 170.545 43.8479L172.561 43.4959C172.945 43.4106 173.233 43.2613 173.425 43.048C173.638 42.8347 173.745 42.536 173.745 42.152V19.784C173.745 19.4853 173.691 19.272 173.585 19.144C173.478 18.9947 173.275 18.9093 172.977 18.888H170.225C170.011 18.8667 169.851 18.8133 169.745 18.728C169.638 18.6427 169.585 18.536 169.585 18.408C169.585 18.2587 169.638 18.1307 169.745 18.024C169.851 17.9173 170.043 17.8213 170.321 17.736L175.569 16.104C175.953 15.976 176.262 15.8907 176.497 15.848C176.731 15.784 176.934 15.752 177.105 15.752C177.382 15.752 177.585 15.8373 177.713 16.008C177.862 16.1573 177.937 16.3707 177.937 16.648ZM177.329 22.728L176.593 22.024L177.937 20.84C180.155 18.856 182.054 17.4693 183.633 16.68C185.211 15.8693 186.758 15.464 188.273 15.464C190.598 15.464 192.401 16.232 193.681 17.768C194.961 19.304 195.771 21.48 196.113 24.296L198.417 41.896C198.481 42.3653 198.619 42.7386 198.833 43.0159C199.067 43.2932 199.409 43.4747 199.857 43.56L201.521 43.8479C201.755 43.8906 201.937 43.9652 202.065 44.0719C202.193 44.1786 202.257 44.3067 202.257 44.456C202.257 44.6053 202.193 44.7333 202.065 44.84C201.937 44.9467 201.734 45 201.457 45H190.993C190.438 45 190.161 44.808 190.161 44.424C190.161 44.1467 190.406 43.944 190.897 43.816L192.913 43.4959C193.361 43.4106 193.691 43.2293 193.905 42.952C194.139 42.6747 194.235 42.3227 194.193 41.896L191.921 24.9039C191.601 22.5146 190.982 20.7439 190.065 19.5919C189.169 18.4186 187.857 17.832 186.128 17.832C185.019 17.832 183.857 18.1413 182.641 18.76C181.446 19.3573 180.102 20.3067 178.609 21.608L177.329 22.728ZM230.147 26.984C230.147 27.56 229.965 27.9973 229.603 28.296C229.261 28.5947 228.749 28.7439 228.067 28.7439H207.587V27.56H224.611C225.379 27.56 225.763 27.2186 225.763 26.5359C225.763 23.5066 225.08 21.1173 223.715 19.368C222.349 17.6187 220.525 16.7439 218.243 16.7439C216.344 16.7439 214.701 17.2667 213.315 18.312C211.949 19.336 210.893 20.7972 210.147 22.6959C209.4 24.5732 209.027 26.76 209.027 29.256C209.027 33.6293 210.051 36.9892 212.099 39.3359C214.147 41.6612 216.792 42.824 220.035 42.824C222.253 42.824 224.184 42.2267 225.827 41.032C227.469 39.8373 228.515 38.28 228.963 36.36C229.069 36.1467 229.165 35.9972 229.251 35.9119C229.357 35.8266 229.475 35.784 229.603 35.784C229.773 35.784 229.901 35.8586 229.987 36.0079C230.072 36.1359 230.104 36.3067 230.083 36.52C229.891 38.2267 229.272 39.7733 228.227 41.16C227.181 42.5467 225.816 43.6453 224.131 44.456C222.467 45.2667 220.6 45.672 218.531 45.672C215.8 45.672 213.421 45.0747 211.395 43.88C209.368 42.6853 207.789 41 206.659 38.824C205.549 36.6267 204.995 34.0453 204.995 31.08C204.995 28.136 205.56 25.4907 206.691 23.144C207.843 20.776 209.443 18.8987 211.491 17.512C213.56 16.1253 215.981 15.432 218.755 15.432C221.016 15.432 223 15.9226 224.707 16.9039C226.413 17.8852 227.747 19.2507 228.707 21C229.667 22.728 230.147 24.7227 230.147 26.984ZM250.036 41.7039L247.956 46.792L236.916 20.0079C236.532 19.0266 236.084 18.3547 235.572 17.992C235.06 17.6293 234.303 17.3733 233.3 17.224C233.001 17.16 232.799 17.0853 232.692 17C232.585 16.8933 232.532 16.7547 232.532 16.584C232.532 16.4133 232.596 16.2853 232.724 16.2C232.873 16.0933 233.076 16.04 233.332 16.04H244.724C244.98 16.04 245.172 16.0933 245.3 16.2C245.449 16.2853 245.524 16.424 245.524 16.616C245.524 16.7653 245.46 16.8933 245.332 17C245.225 17.1067 245.023 17.192 244.724 17.256L242.708 17.4799C241.855 17.6079 241.343 17.8747 241.172 18.28C241.023 18.6853 241.129 19.3467 241.492 20.264L250.036 41.7039ZM244.788 53.416L248.372 44.424L248.884 43.3359L257.78 20.936C258.249 19.784 258.377 18.9627 258.164 18.472C257.972 17.9813 257.375 17.6613 256.372 17.512L254.676 17.256C254.377 17.2133 254.164 17.1387 254.036 17.032C253.929 16.9253 253.876 16.7867 253.876 16.616C253.876 16.424 253.94 16.2853 254.068 16.2C254.217 16.0933 254.42 16.04 254.676 16.04H263.38C263.636 16.04 263.839 16.0933 263.988 16.2C264.137 16.3067 264.212 16.4453 264.212 16.616C264.212 16.7653 264.148 16.8933 264.02 17C263.913 17.1067 263.7 17.192 263.38 17.256C262.335 17.4267 261.545 17.736 261.012 18.184C260.479 18.6107 260.009 19.3573 259.604 20.424L246.356 53.5439C245.652 55.3146 244.948 56.712 244.244 57.736C243.561 58.7813 242.815 59.5173 242.004 59.944C241.193 60.3707 240.255 60.584 239.188 60.584C237.567 60.584 236.287 60.1466 235.348 59.2719C234.431 58.3972 233.972 57.3626 233.972 56.1679C233.972 55.3359 234.164 54.6853 234.548 54.216C234.932 53.7467 235.444 53.512 236.084 53.512C236.681 53.512 237.151 53.7253 237.492 54.152C237.833 54.5787 238.057 55.1333 238.164 55.816L238.292 56.7439C238.356 57.4479 238.548 57.9707 238.868 58.312C239.209 58.6747 239.636 58.8559 240.148 58.8559C240.703 58.8559 241.225 58.6853 241.716 58.344C242.207 58.024 242.708 57.4586 243.22 56.6479C243.732 55.8586 244.255 54.7813 244.788 53.416ZM94.464 74.048H121.888V75.488H94.464V74.048ZM96.928 93.056C96.928 93.4187 97.045 93.7067 97.28 93.92C97.515 94.1333 97.856 94.272 98.304 94.336L101.056 94.752C101.568 94.8587 101.824 95.0827 101.824 95.424C101.824 95.5947 101.76 95.7333 101.632 95.84C101.504 95.9467 101.291 96 100.992 96H88.128C87.851 96 87.648 95.9467 87.52 95.84C87.392 95.7333 87.328 95.5947 87.328 95.424C87.328 95.0827 87.573 94.8587 88.064 94.752L90.848 94.336C91.296 94.272 91.637 94.1333 91.872 93.92C92.107 93.7067 92.224 93.4187 92.224 93.056V54.144C92.224 53.7813 92.107 53.4932 91.872 53.2799C91.637 53.0666 91.296 52.9279 90.848 52.8639L88.064 52.448C87.573 52.3413 87.328 52.1173 87.328 51.776C87.328 51.584 87.392 51.4453 87.52 51.36C87.648 51.2533 87.851 51.2 88.128 51.2H100.992C101.291 51.2 101.504 51.2533 101.632 51.36C101.76 51.4453 101.824 51.584 101.824 51.776C101.824 52.1173 101.568 52.3413 101.056 52.448L98.304 52.8639C97.856 52.9279 97.515 53.0666 97.28 53.2799C97.045 53.4932 96.928 53.7813 96.928 54.144V93.056ZM124.928 93.056C124.928 93.4187 125.045 93.7067 125.28 93.92C125.515 94.1333 125.845 94.272 126.272 94.336L129.056 94.752C129.568 94.8587 129.824 95.0827 129.824 95.424C129.824 95.5947 129.76 95.7333 129.632 95.84C129.504 95.9467 129.291 96 128.992 96H116.128C115.851 96 115.637 95.9467 115.488 95.84C115.36 95.7333 115.296 95.5947 115.296 95.424C115.296 95.0827 115.552 94.8587 116.064 94.752L118.848 94.336C119.296 94.272 119.627 94.1333 119.84 93.92C120.075 93.7067 120.192 93.4187 120.192 93.056V54.144C120.192 53.7813 120.075 53.4932 119.84 53.2799C119.627 53.0666 119.296 52.9279 118.848 52.8639L116.064 52.448C115.552 52.3413 115.296 52.1173 115.296 51.776C115.296 51.584 115.36 51.4453 115.488 51.36C115.637 51.2533 115.851 51.2 116.128 51.2H128.992C129.291 51.2 129.504 51.2533 129.632 51.36C129.76 51.4453 129.824 51.584 129.824 51.776C129.824 52.1173 129.568 52.3413 129.056 52.448L126.272 52.8639C125.845 52.9279 125.515 53.0666 125.28 53.2799C125.045 53.4932 124.928 53.7813 124.928 54.144V93.056ZM154.213 92.512V92.096L154.021 91.968V74.336C154.021 72.1173 153.52 70.432 152.517 69.28C151.514 68.1067 150.042 67.52 148.101 67.52C146.138 67.52 144.688 67.936 143.749 68.768C142.832 69.6 142.373 70.528 142.373 71.552V73.6C142.373 74.3467 142.138 74.9227 141.669 75.328C141.221 75.7333 140.624 75.936 139.877 75.936C139.216 75.936 138.693 75.7333 138.309 75.328C137.925 74.9013 137.733 74.336 137.733 73.632C137.733 72.4373 138.17 71.296 139.045 70.208C139.92 69.0987 141.178 68.192 142.821 67.488C144.485 66.784 146.469 66.432 148.773 66.432C151.952 66.432 154.32 67.168 155.877 68.64C157.434 70.112 158.213 72.0853 158.213 74.56V92.32C158.213 93.1733 158.362 93.7813 158.661 94.144C158.96 94.5067 159.344 94.688 159.813 94.688C160.325 94.688 160.709 94.5707 160.965 94.336C161.221 94.08 161.413 93.8027 161.541 93.504C161.605 93.3973 161.669 93.312 161.733 93.248C161.818 93.1627 161.914 93.12 162.021 93.12C162.149 93.12 162.245 93.1733 162.309 93.28C162.373 93.3653 162.405 93.4827 162.405 93.632C162.405 94.08 162.256 94.528 161.957 94.976C161.658 95.424 161.21 95.808 160.613 96.128C160.037 96.448 159.312 96.608 158.437 96.608C157.072 96.608 156.026 96.267 155.301 95.584C154.576 94.9013 154.213 93.8773 154.213 92.512ZM136.229 89.6C136.229 87.3387 137.21 85.4507 139.173 83.936C141.157 82.4213 143.941 81.664 147.525 81.664C149.104 81.664 150.512 81.824 151.749 82.144C152.986 82.4427 154.117 82.8053 155.141 83.232L154.885 84.192C153.882 83.7867 152.837 83.4453 151.749 83.168C150.661 82.8907 149.466 82.752 148.165 82.752C145.776 82.752 143.93 83.3173 142.629 84.448C141.328 85.5787 140.677 87.0827 140.677 88.96C140.677 90.7733 141.221 92.192 142.309 93.216C143.397 94.24 144.805 94.752 146.533 94.752C148.069 94.752 149.552 94.4213 150.981 93.76C152.432 93.0987 153.69 92.1173 154.757 90.816L155.237 91.584C154.021 93.2053 152.485 94.4533 150.629 95.328C148.773 96.203 146.8 96.64 144.709 96.64C142.192 96.64 140.144 96.011 138.565 94.752C137.008 93.472 136.229 91.7547 136.229 89.6ZM173.89 67.52V72.032L173.986 72.288V108.096C173.986 108.48 174.082 108.779 174.274 108.992C174.487 109.227 174.775 109.376 175.138 109.44L177.89 109.792C178.146 109.835 178.338 109.899 178.466 109.984C178.594 110.091 178.658 110.229 178.658 110.4C178.658 110.571 178.583 110.709 178.434 110.816C178.306 110.923 178.103 110.976 177.826 110.976H166.818C166.562 110.976 166.37 110.923 166.242 110.816C166.114 110.709 166.049 110.571 166.049 110.4C166.049 110.251 166.114 110.123 166.242 110.016C166.37 109.909 166.572 109.824 166.85 109.76L168.61 109.472C168.994 109.387 169.282 109.237 169.474 109.024C169.687 108.811 169.794 108.512 169.794 108.128V70.656C169.794 70.3573 169.73 70.1333 169.602 69.984C169.495 69.8347 169.303 69.76 169.026 69.76L166.274 69.728C166.039 69.7067 165.868 69.6533 165.762 69.568C165.655 69.4827 165.602 69.376 165.602 69.248C165.602 69.0987 165.655 68.9813 165.762 68.896C165.868 68.7893 166.06 68.6933 166.338 68.608L171.49 66.944C171.874 66.816 172.183 66.7307 172.418 66.688C172.652 66.624 172.855 66.592 173.026 66.592C173.324 66.592 173.538 66.6773 173.666 66.848C173.815 66.9973 173.89 67.2213 173.89 67.52ZM173.026 74.176L172.546 73.152C174.146 70.976 175.927 69.312 177.89 68.16C179.852 67.008 181.975 66.432 184.258 66.432C186.626 66.432 188.738 67.0507 190.594 68.288C192.45 69.504 193.922 71.2107 195.01 73.408C196.098 75.584 196.642 78.1013 196.642 80.96C196.642 84.224 196.023 87.04 194.786 89.408C193.548 91.7547 191.884 93.5573 189.794 94.816C187.724 96.075 185.442 96.704 182.946 96.704C180.535 96.704 178.412 96.117 176.578 94.944C174.743 93.7707 173.26 92.0853 172.13 89.888L172.866 88.96C173.911 90.9013 175.244 92.4053 176.866 93.472C178.487 94.5173 180.226 95.04 182.082 95.04C183.98 95.04 185.687 94.5493 187.202 93.568C188.738 92.5867 189.954 91.104 190.85 89.12C191.746 87.1147 192.194 84.6187 192.194 81.632C192.194 78.7093 191.778 76.2667 190.946 74.304C190.114 72.32 188.972 70.8267 187.522 69.824C186.071 68.8213 184.428 68.32 182.594 68.32C180.951 68.32 179.308 68.8107 177.666 69.792C176.023 70.752 174.476 72.2133 173.026 74.176ZM209.077 67.52V72.032L209.173 72.288V108.096C209.173 108.48 209.269 108.779 209.461 108.992C209.674 109.227 209.962 109.376 210.325 109.44L213.077 109.792C213.333 109.835 213.525 109.899 213.653 109.984C213.781 110.091 213.845 110.229 213.845 110.4C213.845 110.571 213.77 110.709 213.621 110.816C213.493 110.923 213.29 110.976 213.013 110.976H202.005C201.749 110.976 201.557 110.923 201.429 110.816C201.301 110.709 201.237 110.571 201.237 110.4C201.237 110.251 201.301 110.123 201.429 110.016C201.557 109.909 201.76 109.824 202.037 109.76L203.797 109.472C204.181 109.387 204.469 109.237 204.661 109.024C204.874 108.811 204.981 108.512 204.981 108.128V70.656C204.981 70.3573 204.917 70.1333 204.789 69.984C204.682 69.8347 204.49 69.76 204.213 69.76L201.461 69.728C201.226 69.7067 201.056 69.6533 200.949 69.568C200.842 69.4827 200.789 69.376 200.789 69.248C200.789 69.0987 200.842 68.9813 200.949 68.896C201.056 68.7893 201.248 68.6933 201.525 68.608L206.677 66.944C207.061 66.816 207.37 66.7307 207.605 66.688C207.84 66.624 208.042 66.592 208.213 66.592C208.512 66.592 208.725 66.6773 208.853 66.848C209.002 66.9973 209.077 67.2213 209.077 67.52ZM208.213 74.176L207.733 73.152C209.333 70.976 211.114 69.312 213.077 68.16C215.04 67.008 217.162 66.432 219.445 66.432C221.813 66.432 223.925 67.0507 225.781 68.288C227.637 69.504 229.109 71.2107 230.197 73.408C231.285 75.584 231.829 78.1013 231.829 80.96C231.829 84.224 231.21 87.04 229.973 89.408C228.736 91.7547 227.072 93.5573 224.981 94.816C222.912 96.075 220.629 96.704 218.133 96.704C215.722 96.704 213.6 96.117 211.765 94.944C209.93 93.7707 208.448 92.0853 207.317 89.888L208.053 88.96C209.098 90.9013 210.432 92.4053 212.053 93.472C213.674 94.5173 215.413 95.04 217.269 95.04C219.168 95.04 220.874 94.5493 222.389 93.568C223.925 92.5867 225.141 91.104 226.037 89.12C226.933 87.1147 227.381 84.6187 227.381 81.632C227.381 78.7093 226.965 76.2667 226.133 74.304C225.301 72.32 224.16 70.8267 222.709 69.824C221.258 68.8213 219.616 68.32 217.781 68.32C216.138 68.32 214.496 68.8107 212.853 69.792C211.21 70.752 209.664 72.2133 208.213 74.176ZM250.911 92.704L248.831 97.792L237.791 71.008C237.407 70.0267 236.959 69.3547 236.447 68.992C235.935 68.6293 235.178 68.3733 234.175 68.224C233.876 68.16 233.674 68.0853 233.567 68C233.46 67.8933 233.407 67.7547 233.407 67.584C233.407 67.4133 233.471 67.2853 233.599 67.2C233.748 67.0933 233.951 67.04 234.207 67.04H245.599C245.855 67.04 246.047 67.0933 246.175 67.2C246.324 67.2853 246.399 67.424 246.399 67.616C246.399 67.7653 246.335 67.8933 246.207 68C246.1 68.1067 245.898 68.192 245.599 68.256L243.583 68.48C242.73 68.608 242.218 68.8747 242.047 69.28C241.898 69.6853 242.004 70.3467 242.367 71.264L250.911 92.704ZM245.663 104.416L249.247 95.424L249.759 94.336L258.655 71.936C259.124 70.784 259.252 69.9627 259.039 69.472C258.847 68.9813 258.25 68.6613 257.247 68.512L255.551 68.256C255.252 68.2133 255.039 68.1387 254.911 68.032C254.804 67.9253 254.751 67.7867 254.751 67.616C254.751 67.424 254.815 67.2853 254.943 67.2C255.092 67.0933 255.295 67.04 255.551 67.04H264.255C264.511 67.04 264.714 67.0933 264.863 67.2C265.012 67.3067 265.087 67.4453 265.087 67.616C265.087 67.7653 265.023 67.8933 264.895 68C264.788 68.1067 264.575 68.192 264.255 68.256C263.21 68.4267 262.42 68.736 261.887 69.184C261.354 69.6107 260.884 70.3573 260.479 71.424L247.231 104.544C246.527 106.315 245.823 107.712 245.119 108.736C244.436 109.781 243.69 110.517 242.879 110.944C242.068 111.371 241.13 111.584 240.063 111.584C238.442 111.584 237.162 111.147 236.223 110.272C235.306 109.397 234.847 108.363 234.847 107.168C234.847 106.336 235.039 105.685 235.423 105.216C235.807 104.747 236.319 104.512 236.959 104.512C237.556 104.512 238.026 104.725 238.367 105.152C238.708 105.579 238.932 106.133 239.039 106.816L239.167 107.744C239.231 108.448 239.423 108.971 239.743 109.312C240.084 109.675 240.511 109.856 241.023 109.856C241.578 109.856 242.1 109.685 242.591 109.344C243.082 109.024 243.583 108.459 244.095 107.648C244.607 106.859 245.13 105.781 245.663 104.416Z" fill="#F7F7F6"/>
<path d="M63.8139 60.8808C63.8139 60.8808 68.1432 63.6295 72.5266 61.3209C76.91 59.0123 72.5266 53.3852 72.5266 53.3852C72.5266 53.3852 82.2416 54.5077 84.2156 45.738C85.6767 39.2452 76.6178 34.1952 59.8148 44.1509" fill="#C3DCDE"/>
<path d="M59.5142 43.6558C67.9728 38.6441 74.5922 37.34 78.9794 38.2103C81.1808 38.647 82.8443 39.6386 83.8551 41.0113C84.8695 42.3891 85.1841 44.0947 84.7861 45.8631C83.7424 50.4998 80.6249 52.5414 77.8032 53.4016C76.4024 53.8286 75.0722 53.9673 74.0955 54.0003C73.9367 54.0056 73.7868 54.0079 73.6472 54.0085C74.0023 54.5936 74.4355 55.4092 74.7272 56.3117C75.0178 57.211 75.1842 58.246 74.9445 59.2405C74.698 60.2625 74.037 61.1795 72.8017 61.83C70.4436 63.072 68.1065 62.9473 66.386 62.5267C65.5252 62.3162 64.8101 62.0299 64.3089 61.7958C64.0579 61.6785 63.8594 61.5737 63.7216 61.4971C63.6527 61.4587 63.5988 61.4274 63.5612 61.4049C63.5424 61.3937 63.5276 61.3847 63.517 61.3782C63.5117 61.3749 63.5075 61.3723 63.5043 61.3703C63.5027 61.3693 63.5014 61.3684 63.5003 61.3677C63.4998 61.3674 63.4993 61.367 63.4989 61.3667C63.4987 61.3666 63.4984 61.3665 63.4983 61.3665C63.4981 61.3663 63.4979 61.3661 63.8139 60.8806L64.1297 60.3951L64.1299 60.3952C64.1308 60.3958 64.1329 60.397 64.1358 60.3989C64.1419 60.4026 64.152 60.4087 64.166 60.4171C64.1939 60.4337 64.2375 60.4592 64.2955 60.4915C64.4116 60.5561 64.5855 60.6481 64.8088 60.7524C65.2563 60.9615 65.8975 61.2181 66.667 61.4062C68.207 61.7827 70.2263 61.8782 72.2515 60.8116C73.2079 60.3079 73.6427 59.6555 73.8072 58.9732C73.9784 58.2633 73.8709 57.4587 73.6136 56.6627C73.3582 55.8724 72.971 55.139 72.6419 54.5973C72.4783 54.3281 72.3314 54.11 72.2263 53.9604C72.1737 53.8857 72.1318 53.8282 72.1036 53.7902C72.0894 53.7712 72.0787 53.757 72.0719 53.7481C72.0685 53.7436 72.066 53.7403 72.0646 53.7385C72.0639 53.7376 72.0634 53.7371 72.0632 53.7368L72.063 53.7367L71.2189 52.6528L72.5945 52.8118C72.5951 52.8118 72.596 52.812 72.5974 52.8122C72.6006 52.8125 72.6061 52.8131 72.6138 52.8139C72.6293 52.8154 72.6536 52.8177 72.6863 52.8205C72.7516 52.826 72.8501 52.8334 72.9777 52.8398C73.2329 52.8526 73.6035 52.8618 74.0555 52.8466C74.962 52.816 76.1839 52.6871 77.4585 52.2986C79.9878 51.5276 82.7149 49.7456 83.6452 45.6127L83.6746 45.4745C83.9604 44.0499 83.6829 42.7403 82.9096 41.6901C82.1077 40.601 80.7301 39.7348 78.7491 39.3419C74.7713 38.5529 68.4597 39.7017 60.1155 44.6457L59.5142 43.6558ZM64.1294 60.3948L64.1297 60.3951C64.1293 60.3948 64.1291 60.3946 64.1291 60.3946C64.1291 60.3947 64.1293 60.3947 64.1294 60.3948Z" fill="#421D06"/>
<path d="M43.742 57.4303C43.742 57.4303 38.7732 58.7557 35.3033 55.2451C31.8333 51.7344 37.7361 47.6817 37.7361 47.6817C37.7361 47.6817 28.1328 45.8473 28.94 36.899C29.5379 30.274 39.72 28.1692 52.6823 42.6809" fill="#C3DCDE"/>
<path d="M53.1206 42.2992C46.5953 34.9939 40.6863 31.7722 36.2382 31.2901C34.0062 31.0482 32.1168 31.4959 30.7326 32.5021C29.3434 33.5119 28.5207 35.0434 28.3579 36.8478C27.9311 41.579 30.2764 44.4568 32.702 46.1201C33.9062 46.9459 35.1314 47.4757 36.0522 47.7992C36.202 47.8518 36.3441 47.8987 36.477 47.941C35.9591 48.3925 35.2963 49.0403 34.7416 49.8132C34.1889 50.5835 33.713 51.5202 33.6366 52.5397C33.5581 53.5874 33.9071 54.6589 34.8849 55.6483C36.7517 57.5369 39.0173 58.1168 40.786 58.2302C41.6709 58.2869 42.4403 58.2279 42.9897 58.1546C43.2649 58.1178 43.4862 58.0773 43.641 58.0454C43.7184 58.0295 43.7794 58.0157 43.8221 58.0056C43.8435 58.0005 43.8604 57.9963 43.8725 57.9933C43.8785 57.9917 43.8834 57.9905 43.887 57.9895C43.8888 57.9891 43.8904 57.9886 43.8916 57.9883C43.8922 57.9882 43.8928 57.9879 43.8933 57.9878C43.8935 57.9877 43.8938 57.9877 43.8939 57.9877C43.8942 57.9876 43.8944 57.9875 43.742 57.4303L43.5899 56.8731L43.5897 56.8732C43.5886 56.8735 43.5863 56.8741 43.5829 56.8749C43.576 56.8767 43.5645 56.8795 43.5486 56.8833C43.5169 56.8908 43.4676 56.902 43.4023 56.9154C43.2719 56.9423 43.078 56.978 42.8332 57.0107C42.3425 57.0762 41.6527 57.129 40.8617 57.0783C39.2785 56.9768 37.3247 56.4641 35.7215 54.8421C34.9644 54.0761 34.75 53.3244 34.8024 52.6249C34.8569 51.8972 35.2061 51.1624 35.6953 50.4807C36.181 49.8038 36.7748 49.2206 37.2546 48.8027C37.493 48.595 37.6999 48.4311 37.846 48.32C37.9189 48.2644 37.9765 48.2222 38.0151 48.1944C38.0344 48.1805 38.0489 48.1702 38.0582 48.1637C38.0628 48.1605 38.0661 48.1581 38.0681 48.1568C38.069 48.1561 38.0697 48.1558 38.07 48.1556L38.0701 48.1555L39.2069 47.3749L37.8471 47.1151C37.8466 47.115 37.8457 47.1149 37.8443 47.1147C37.8411 47.114 37.8356 47.1129 37.8281 47.1114C37.8129 47.1082 37.7889 47.1031 37.757 47.096C37.693 47.0818 37.5969 47.0593 37.4734 47.0273C37.2261 46.9632 36.8702 46.8612 36.444 46.7115C35.5894 46.4114 34.4644 45.9233 33.3687 45.1719C31.1945 43.681 29.1416 41.1674 29.522 36.9503L29.5364 36.8097C29.7007 35.3666 30.3667 34.2014 31.4256 33.4316C32.5238 32.6334 34.1022 32.2197 36.1108 32.4374C40.1438 32.8746 45.807 35.8564 52.2441 43.0628L53.1206 42.2992ZM43.5903 56.873L43.5899 56.8731C43.5904 56.873 43.5906 56.8729 43.5906 56.8729C43.5906 56.8729 43.5904 56.8729 43.5903 56.873Z" fill="#421D06"/>
<path d="M49.8792 71.4209C49.8792 71.4209 49.0025 69.5451 46.3973 66.4387C41.2834 60.344 38.6665 47.3713 56.8926 41.8423C56.8926 41.8423 80.5628 56.9923 49.8792 71.4209Z" fill="#F2BF27"/>
<path d="M57.1309 41.4789L56.8926 41.8422C57.131 41.479 57.1313 41.4791 57.1316 41.4793C57.1319 41.4795 57.1323 41.4797 57.1328 41.48C57.1337 41.4807 57.1351 41.4816 57.1368 41.4827C57.1401 41.4849 57.1449 41.4879 57.151 41.4919C57.1633 41.4999 57.1811 41.5116 57.2041 41.5268C57.2501 41.5573 57.3168 41.6023 57.402 41.6611C57.5724 41.7787 57.8167 41.952 58.1156 42.1772C58.7132 42.6274 59.5309 43.286 60.4149 44.1223C62.177 45.7893 64.2299 48.1879 65.3037 51.0714C66.3847 53.9744 66.4678 57.3597 64.2956 60.9348C62.1369 64.4876 57.7758 68.1869 50.0676 71.8116L49.667 71.9999L49.4811 71.6021V71.6019C49.4809 71.6015 49.4805 71.6007 49.48 71.5997C49.4787 71.5971 49.4766 71.5926 49.4736 71.5864C49.4675 71.574 49.4579 71.5543 49.4444 71.5277C49.4175 71.4744 49.3751 71.3931 49.3159 71.285C49.1975 71.0688 49.0112 70.7453 48.7439 70.3246C48.2426 69.536 47.4561 68.4054 46.2966 66.9994L46.0597 66.7147C43.443 63.5961 41.4442 58.6992 42.4631 53.8404C43.4901 48.9435 47.5496 44.2235 56.7638 41.4283L56.9594 41.3691L57.1309 41.4789ZM56.8211 42.3171C47.9539 45.0571 44.2574 49.5541 43.3217 54.016C42.371 58.5495 44.2376 63.1863 46.7348 66.1623L46.7349 66.1625C48.0498 67.7303 48.9314 68.9912 49.4864 69.8644C49.7542 70.2858 49.9456 70.6169 50.0731 70.8485C57.4645 67.3189 61.545 63.7788 63.5438 60.4893C65.5631 57.1657 65.4818 54.0581 64.4808 51.3701C63.4725 48.6625 61.5255 46.3718 59.8083 44.7473C58.9527 43.9378 58.1609 43.3001 57.5838 42.8654C57.2955 42.6482 57.0611 42.4819 56.8998 42.3705C56.8713 42.3509 56.8449 42.3333 56.8211 42.3171Z" fill="#421D06"/>
<path d="M72.8295 34.3076C73.1832 28.6143 66.6793 23.5877 58.3027 23.0803C49.926 22.5729 42.8488 26.7769 42.4951 32.4702C42.1415 38.1635 48.6454 43.1901 57.022 43.6975C65.3986 44.2049 72.4759 40.0009 72.8295 34.3076Z" fill="#F2BF27"/>
<path d="M58.2668 23.6566C54.1814 23.4092 50.4384 24.3132 47.6915 25.9449C44.942 27.5782 43.2401 29.9032 43.0784 32.5058C42.9168 35.1084 44.3181 37.6214 46.8449 39.5743C49.3692 41.5253 52.9724 42.8743 57.0578 43.1217C61.1432 43.3692 64.8862 42.4652 67.6331 40.8335C70.3826 39.2002 72.0845 36.8751 72.2462 34.2725C72.4078 31.6699 71.0065 29.1569 68.4797 27.2041C65.9554 25.2531 62.3522 23.9041 58.2668 23.6566ZM58.3384 22.5045C62.6296 22.7644 66.4667 24.1826 69.2001 26.2951C71.931 28.4057 73.6048 31.2526 73.4129 34.3432C73.2209 37.4339 71.2072 40.0575 68.2356 41.8227C65.2613 43.5895 61.2774 44.5338 56.9862 44.2738C52.695 44.0139 48.8579 42.5959 46.1245 40.4834C43.3936 38.3728 41.7198 35.5258 41.9117 32.4352C42.1037 29.3445 44.1174 26.721 47.089 24.9558C50.0633 23.189 54.0472 22.2446 58.3384 22.5045Z" fill="#421D06"/>
<path d="M79.0884 6.78078C80.8555 6.74112 82.084 7.38657 82.7168 8.50573C83.3244 9.58016 83.3033 10.9563 82.9127 12.2483C82.1396 14.8058 79.7523 17.5209 76.6332 17.6019L76.6024 16.4481C79.0355 16.3848 81.1046 14.1942 81.7926 11.9181C82.1326 10.7933 82.0933 9.77058 81.6963 9.0685C81.3246 8.41118 80.5623 7.9023 79.1149 7.93478C77.7941 7.96443 76.4529 8.95786 75.1462 10.6938C73.8603 12.4023 72.7132 14.6911 71.7525 17.0091C70.7944 19.3211 70.0335 21.6326 69.5117 23.3687C69.2511 24.236 69.0506 24.958 68.9155 25.4625C68.8479 25.7147 68.7967 25.9125 68.7625 26.0467C68.7454 26.1139 68.7325 26.1651 68.724 26.1993C68.7197 26.2164 68.7165 26.2293 68.7144 26.2378C68.7134 26.242 68.7126 26.2451 68.7121 26.2471C68.7119 26.2481 68.7117 26.2489 68.7116 26.2493C68.7115 26.2495 68.7116 26.2497 68.7116 26.2498C68.7115 26.2498 68.7115 26.2498 68.1432 26.1149C67.5946 25.9847 67.5756 25.9802 67.575 25.9798C67.5751 25.9796 67.5751 25.9793 67.5752 25.979C67.5754 25.9783 67.5756 25.9772 67.5759 25.976C67.5765 25.9735 67.5775 25.9699 67.5786 25.9651C67.5809 25.9557 67.5844 25.9419 67.5889 25.9239C67.5979 25.8876 67.6112 25.8343 67.6288 25.7651C67.6641 25.6266 67.7165 25.4243 67.7854 25.1673C67.923 24.6534 68.1266 23.9201 68.3911 23.0403C68.9195 21.2819 69.6928 18.9312 70.6707 16.5719C71.6459 14.2187 72.8367 11.8273 74.2082 10.0052C75.5589 8.21071 77.1948 6.82328 79.0884 6.78078Z" fill="#421D06"/>
<path d="M40.2518 3.84485C40.9849 2.6082 42.3592 1.86214 44.3735 2.02127C46.4963 2.18898 48.039 3.75661 49.1541 5.76382C50.2775 7.78584 51.0497 10.3941 51.5838 12.9402C52.1196 15.4944 52.4235 18.0251 52.5936 19.9138C52.6788 20.8591 52.7306 21.6458 52.7611 22.1969C52.7764 22.4725 52.7864 22.6893 52.7925 22.8377C52.7956 22.912 52.7977 22.9691 52.7991 23.0079C52.7998 23.0274 52.8003 23.0422 52.8007 23.0523C52.8008 23.0574 52.801 23.0613 52.8011 23.064V23.068C52.8001 23.0682 52.7772 23.0691 52.2169 23.0852C51.6327 23.1019 51.6328 23.1018 51.6328 23.1018C51.6328 23.1017 51.6328 23.1016 51.6328 23.1014C51.6327 23.1009 51.6326 23.1002 51.6326 23.0991C51.6325 23.097 51.6325 23.0936 51.6323 23.0891C51.632 23.0801 51.6315 23.0664 51.6309 23.0481C51.6296 23.0116 51.6276 22.9568 51.6246 22.8851C51.6187 22.7416 51.6089 22.53 51.5939 22.26C51.564 21.72 51.5131 20.9465 51.4293 20.0161C51.2615 18.1535 50.9627 15.6702 50.4392 13.1744C49.9139 10.6705 49.1703 8.19268 48.1293 6.31899C47.0802 4.43052 45.8103 3.29279 44.2803 3.17189C42.6418 3.04245 41.733 3.63104 41.2606 4.42791C40.7593 5.27369 40.6807 6.47151 40.9841 7.62813C41.2881 8.78732 41.9406 9.7723 42.7343 10.2363C43.1211 10.4624 43.5416 10.5666 43.9929 10.5189C44.4479 10.4708 44.9778 10.2634 45.5675 9.79424L46.3008 10.6932C45.5755 11.2701 44.8404 11.5903 44.1174 11.6667C43.3908 11.7435 42.72 11.5694 42.1389 11.2296C40.9965 10.5619 40.206 9.26531 39.8526 7.91754C39.4984 6.56722 39.5478 5.03259 40.2518 3.84485Z" fill="#421D06"/>
<path d="M65.5863 32.175C66.1915 32.175 66.6821 31.6905 66.6821 31.0929C66.6821 30.4952 66.1915 30.0107 65.5863 30.0107C64.981 30.0107 64.4904 30.4952 64.4904 31.0929C64.4904 31.6905 64.981 32.175 65.5863 32.175Z" fill="#421D06"/>
<path d="M52.1439 31.0207C52.7491 31.0207 53.2397 30.5362 53.2397 29.9386C53.2397 29.3409 52.7491 28.8564 52.1439 28.8564C51.5387 28.8564 51.048 29.3409 51.048 29.9386C51.048 30.5362 51.5387 31.0207 52.1439 31.0207Z" fill="#421D06"/>
<path d="M42.9491 59.4033C42.9491 59.4033 49.8704 58.5203 63.2441 61.7234L58.3785 66.4733C58.3785 66.4733 49.6571 64.3811 45.3847 65.0867" fill="#421D06"/>
<path d="M65.5863 55.6477L43.1302 52.9928C43.1302 52.9928 44.1662 49.6742 46.219 47.7783C46.219 47.7783 58.792 48.0034 64.4904 50.2615" fill="#421D06"/>
<path d="M49.5 72.5C45.6667 75.3334 34.8 80.6 22 79C5.99999 77 9.99999 60.9641 16 57.5C22 54.0359 35 54.4393 35 68.4697C35 82.5 2.5 88.0071 0 88.6769" stroke="#421D06" stroke-linecap="round"/>
</g>
<defs>
<clipPath id="clip0_254_134">
<rect width="322" height="112" fill="white"/>
</clipPath>
</defs>
</svg>
